<svg viewBox="0 0 200 200" xmlns="http://www.w3.org/2000/svg" xmlns:xlink="http://www.w3.org/1999/xlink" width="200" height="200">
  <path fill="#FFFFFF" d="M21.8,-45.6C26.2,-35.2,26.2,-25.2,35.8,-17.6C45.4,-10.1,64.4,-5.1,74.2,5.6C83.9,16.3,84.4,32.6,75.1,40.7C65.8,48.7,46.8,48.4,32.7,54.4C18.5,60.3,9.3,72.5,3.8,65.8C-1.6,59.2,-3.2,33.7,-12,24.7C-20.8,15.7,-36.9,23.1,-44.5,21.8C-52.1,20.4,-51.2,10.2,-46.9,2.5C-42.6,-5.3,-35,-10.5,-27.7,-12.4C-20.4,-14.3,-13.5,-12.8,-8.9,-23.1C-4.4,-33.5,-2.2,-55.7,3.3,-61.4C8.7,-67,17.4,-56.1,21.8,-45.6Z" transform="translate(80 90) scale(1.4)" />
</svg>